<?xml version="1.0" encoding="us-ascii" standalone="no"?><svg xmlns="http://www.w3.org/2000/svg" xmlns:xlink="http://www.w3.org/1999/xlink" contentStyleType="text/css" height="134px" preserveAspectRatio="none" style="width:221px;height:134px;background:#FFFFFF;" version="1.1" viewBox="0 0 221 134" width="221px" zoomAndPan="magnify"><defs/><g><!--class ElevatorAudio--><g id="elem_ElevatorAudio"><rect codeLine="3" fill="#F1F1F1" height="113.1875" id="ElevatorAudio" rx="2.5" ry="2.5" style="stroke:#181818;stroke-width:0.5;" width="200" x="7" y="7"/><ellipse cx="52.75" cy="23" fill="#ADD1B2" rx="11" ry="11" style="stroke:#181818;stroke-width:1.0;"/><path d="M55.0938,18.6719 C54.1563,18.2344 53.5625,18.0938 52.6875,18.0938 C50.0625,18.0938 48.0625,20.1719 48.0625,22.8906 L48.0625,24.0156 C48.0625,26.5938 50.1719,28.4844 53.0625,28.4844 C54.2813,28.4844 55.4375,28.1875 56.1875,27.6406 C56.7656,27.2344 57.0938,26.7813 57.0938,26.3906 C57.0938,25.9375 56.7031,25.5469 56.2344,25.5469 C56.0156,25.5469 55.8125,25.625 55.625,25.8125 C55.1719,26.2969 55.1719,26.2969 54.9844,26.3906 C54.5625,26.6563 53.875,26.7813 53.1094,26.7813 C51.0625,26.7813 49.7656,25.6875 49.7656,23.9844 L49.7656,22.8906 C49.7656,21.1094 51.0156,19.7969 52.75,19.7969 C53.3281,19.7969 53.9375,19.9531 54.4063,20.2031 C54.8906,20.4844 55.0625,20.7031 55.1563,21.1094 C55.2188,21.5156 55.25,21.6406 55.3906,21.7656 C55.5313,21.9063 55.7656,22.0156 55.9844,22.0156 C56.25,22.0156 56.5156,21.875 56.6875,21.6563 C56.7969,21.5 56.8281,21.3125 56.8281,20.8906 L56.8281,19.4688 C56.8281,19.0313 56.8125,18.9063 56.7188,18.75 C56.5625,18.4844 56.2813,18.3438 55.9844,18.3438 C55.6875,18.3438 55.4844,18.4375 55.2656,18.75 L55.0938,18.6719 Z " fill="#000000"/><text fill="#000000" font-family="sans-serif" font-size="14" lengthAdjust="spacing" textLength="100" x="73.25" y="27.8467">ElevatorAudio</text><line style="stroke:#181818;stroke-width:0.5;" x1="8" x2="206" y1="39" y2="39"/><line style="stroke:#181818;stroke-width:0.5;" x1="8" x2="206" y1="47" y2="47"/><ellipse cx="18" cy="60.6484" fill="#84BE84" rx="3" ry="3" style="stroke:#038048;stroke-width:1.0;"/><text fill="#000000" font-family="sans-serif" font-size="14" lengthAdjust="spacing" textLength="171" x="27" y="63.9951">evacInstructions() : void</text><ellipse cx="18" cy="76.9453" fill="#84BE84" rx="3" ry="3" style="stroke:#038048;stroke-width:1.0;"/><text fill="#000000" font-family="sans-serif" font-size="14" lengthAdjust="spacing" textLength="137" x="27" y="80.292">fireWarning() : void</text><ellipse cx="18" cy="93.2422" fill="#84BE84" rx="3" ry="3" style="stroke:#038048;stroke-width:1.0;"/><text fill="#000000" font-family="sans-serif" font-size="14" lengthAdjust="spacing" textLength="174" x="27" y="96.5889">obstacleWarning() : void</text><ellipse cx="18" cy="109.5391" fill="#84BE84" rx="3" ry="3" style="stroke:#038048;stroke-width:1.0;"/><text fill="#000000" font-family="sans-serif" font-size="14" lengthAdjust="spacing" textLength="174" x="27" y="112.8857">overloadWarning() : void</text></g><!--SRC=[ROyn3i8m34LdSWfl1J5qP-l0q0L6PZSngL4K8yVjKd5tIYiX9EhDVa_wttK5r-v1tWfKjNC-OIbmJZIYYJP3O879xOxpxjjSJ0TlBBdi3t22KJZCxCvADzJCEVwUfIk6FcsYaJG9XZ_qSilK5RIv9sN3x0cK4YwfFJ_NcglJnAWK5xJjVAGB5QC0ydto3G00]--></g></svg>