<?xml version="1.0" encoding="us-ascii" standalone="no"?><svg xmlns="http://www.w3.org/2000/svg" xmlns:xlink="http://www.w3.org/1999/xlink" contentStyleType="text/css" height="166px" preserveAspectRatio="none" style="width:173px;height:166px;background:#FFFFFF;" version="1.1" viewBox="0 0 173 166" width="173px" zoomAndPan="magnify"><defs/><g><!--class Button--><g id="elem_Button"><rect codeLine="3" fill="#F1F1F1" height="145.7813" id="Button" rx="2.5" ry="2.5" style="stroke:#181818;stroke-width:0.5;" width="152" x="7" y="7"/><ellipse cx="53.75" cy="23" fill="#ADD1B2" rx="11" ry="11" style="stroke:#181818;stroke-width:1.0;"/><path d="M56.0938,18.6719 C55.1563,18.2344 54.5625,18.0938 53.6875,18.0938 C51.0625,18.0938 49.0625,20.1719 49.0625,22.8906 L49.0625,24.0156 C49.0625,26.5938 51.1719,28.4844 54.0625,28.4844 C55.2813,28.4844 56.4375,28.1875 57.1875,27.6406 C57.7656,27.2344 58.0938,26.7813 58.0938,26.3906 C58.0938,25.9375 57.7031,25.5469 57.2344,25.5469 C57.0156,25.5469 56.8125,25.625 56.625,25.8125 C56.1719,26.2969 56.1719,26.2969 55.9844,26.3906 C55.5625,26.6563 54.875,26.7813 54.1094,26.7813 C52.0625,26.7813 50.7656,25.6875 50.7656,23.9844 L50.7656,22.8906 C50.7656,21.1094 52.0156,19.7969 53.75,19.7969 C54.3281,19.7969 54.9375,19.9531 55.4063,20.2031 C55.8906,20.4844 56.0625,20.7031 56.1563,21.1094 C56.2188,21.5156 56.25,21.6406 56.3906,21.7656 C56.5313,21.9063 56.7656,22.0156 56.9844,22.0156 C57.25,22.0156 57.5156,21.875 57.6875,21.6563 C57.7969,21.5 57.8281,21.3125 57.8281,20.8906 L57.8281,19.4688 C57.8281,19.0313 57.8125,18.9063 57.7188,18.75 C57.5625,18.4844 57.2813,18.3438 56.9844,18.3438 C56.6875,18.3438 56.4844,18.4375 56.2656,18.75 L56.0938,18.6719 Z " fill="#000000"/><text fill="#000000" font-family="sans-serif" font-size="14" lengthAdjust="spacing" textLength="50" x="74.25" y="27.8467">Button</text><line style="stroke:#181818;stroke-width:0.5;" x1="8" x2="158" y1="39" y2="39"/><rect fill="none" height="6" style="stroke:#C82930;stroke-width:1.0;" width="6" x="15" y="49.6484"/><text fill="#000000" font-family="sans-serif" font-size="14" lengthAdjust="spacing" textLength="126" x="27" y="55.9951">isActivated : bool</text><rect fill="none" height="6" style="stroke:#C82930;stroke-width:1.0;" width="6" x="15" y="65.9453"/><text fill="#000000" font-family="sans-serif" font-size="14" lengthAdjust="spacing" textLength="118" x="27" y="72.292">isDisabled : bool</text><line style="stroke:#181818;stroke-width:0.5;" x1="8" x2="158" y1="79.5938" y2="79.5938"/><ellipse cx="18" cy="93.2422" fill="#84BE84" rx="3" ry="3" style="stroke:#038048;stroke-width:1.0;"/><text fill="#000000" font-family="sans-serif" font-size="14" lengthAdjust="spacing" textLength="104" x="27" y="96.5889">disable() : void</text><ellipse cx="18" cy="109.5391" fill="#84BE84" rx="3" ry="3" style="stroke:#038048;stroke-width:1.0;"/><text fill="#000000" font-family="sans-serif" font-size="14" lengthAdjust="spacing" textLength="102" x="27" y="112.8857">enable() : void</text><ellipse cx="18" cy="125.8359" fill="#84BE84" rx="3" ry="3" style="stroke:#038048;stroke-width:1.0;"/><text fill="#000000" font-family="sans-serif" font-size="14" lengthAdjust="spacing" textLength="74" x="27" y="129.1826">off() : void</text><ellipse cx="18" cy="142.1328" fill="#84BE84" rx="3" ry="3" style="stroke:#038048;stroke-width:1.0;"/><text fill="#000000" font-family="sans-serif" font-size="14" lengthAdjust="spacing" textLength="71" x="27" y="145.4795">on() : void</text></g><!--SRC=[RO-x3i8m34LdyXNU2a8eEriH2mlzXYHrKwCeHh7fWlXt-f1u2M_tt3DSsmeQVy6W0fKr9YGd0eURAcUuczMEf0vAWrDiOG-UEStmIE9y-c3RTY7hpOW6fdP4c7y9TzrNpE_qCFFP2awvnqBgSa0ec9mIP-dfkYnSd3h6Wd6k_ZkJT4QPPlFhloS0]--></g></svg>