<?xml version="1.0" encoding="us-ascii" standalone="no"?><svg xmlns="http://www.w3.org/2000/svg" xmlns:xlink="http://www.w3.org/1999/xlink" contentStyleType="text/css" height="134px" preserveAspectRatio="none" style="width:158px;height:134px;background:#FFFFFF;" version="1.1" viewBox="0 0 158 134" width="158px" zoomAndPan="magnify"><defs/><g><!--class ElevatorDoor--><g id="elem_ElevatorDoor"><rect codeLine="3" fill="#F1F1F1" height="113.1875" id="ElevatorDoor" rx="2.5" ry="2.5" style="stroke:#181818;stroke-width:0.5;" width="137" x="7" y="7"/><ellipse cx="26.5" cy="23" fill="#ADD1B2" rx="11" ry="11" style="stroke:#181818;stroke-width:1.0;"/><path d="M28.8438,18.6719 C27.9063,18.2344 27.3125,18.0938 26.4375,18.0938 C23.8125,18.0938 21.8125,20.1719 21.8125,22.8906 L21.8125,24.0156 C21.8125,26.5938 23.9219,28.4844 26.8125,28.4844 C28.0313,28.4844 29.1875,28.1875 29.9375,27.6406 C30.5156,27.2344 30.8438,26.7813 30.8438,26.3906 C30.8438,25.9375 30.4531,25.5469 29.9844,25.5469 C29.7656,25.5469 29.5625,25.625 29.375,25.8125 C28.9219,26.2969 28.9219,26.2969 28.7344,26.3906 C28.3125,26.6563 27.625,26.7813 26.8594,26.7813 C24.8125,26.7813 23.5156,25.6875 23.5156,23.9844 L23.5156,22.8906 C23.5156,21.1094 24.7656,19.7969 26.5,19.7969 C27.0781,19.7969 27.6875,19.9531 28.1563,20.2031 C28.6406,20.4844 28.8125,20.7031 28.9063,21.1094 C28.9688,21.5156 29,21.6406 29.1406,21.7656 C29.2813,21.9063 29.5156,22.0156 29.7344,22.0156 C30,22.0156 30.2656,21.875 30.4375,21.6563 C30.5469,21.5 30.5781,21.3125 30.5781,20.8906 L30.5781,19.4688 C30.5781,19.0313 30.5625,18.9063 30.4688,18.75 C30.3125,18.4844 30.0313,18.3438 29.7344,18.3438 C29.4375,18.3438 29.2344,18.4375 29.0156,18.75 L28.8438,18.6719 Z " fill="#000000"/><text fill="#000000" font-family="sans-serif" font-size="14" lengthAdjust="spacing" textLength="95" x="41.5" y="27.8467">ElevatorDoor</text><line style="stroke:#181818;stroke-width:0.5;" x1="8" x2="143" y1="39" y2="39"/><rect fill="none" height="6" style="stroke:#C82930;stroke-width:1.0;" width="6" x="15" y="49.6484"/><text fill="#000000" font-family="sans-serif" font-size="14" lengthAdjust="spacing" textLength="95" x="27" y="55.9951">isOpen : bool</text><line style="stroke:#181818;stroke-width:0.5;" x1="8" x2="143" y1="63.2969" y2="63.2969"/><ellipse cx="18" cy="76.9453" fill="#84BE84" rx="3" ry="3" style="stroke:#038048;stroke-width:1.0;"/><text fill="#000000" font-family="sans-serif" font-size="14" lengthAdjust="spacing" textLength="111" x="27" y="80.292">blocked() : void</text><ellipse cx="18" cy="93.2422" fill="#84BE84" rx="3" ry="3" style="stroke:#038048;stroke-width:1.0;"/><text fill="#000000" font-family="sans-serif" font-size="14" lengthAdjust="spacing" textLength="90" x="27" y="96.5889">close() : void</text><ellipse cx="18" cy="109.5391" fill="#84BE84" rx="3" ry="3" style="stroke:#038048;stroke-width:1.0;"/><text fill="#000000" font-family="sans-serif" font-size="14" lengthAdjust="spacing" textLength="90" x="27" y="112.8857">open() : void</text></g><!--SRC=[ROwx3i8m34NdvYky1OHGTZOa65ZeD-HXfG4hhkAe2-g_DxGIC70t7vyhNQEXTm_qLK0RfJnP4RWIJhPokJ0NUAdkcAGVCSC973Efxk28_HF3Rj_Gn2aqv8a5Vm6tnlUUrHgZuPO7BAdQx14Aags9imnft0PipZd6Wd5z_NVUqXsbOW3-p5y0]--></g></svg>