<?xml version="1.0" encoding="us-ascii" standalone="no"?><svg xmlns="http://www.w3.org/2000/svg" xmlns:xlink="http://www.w3.org/1999/xlink" contentStyleType="text/css" height="394px" preserveAspectRatio="none" style="width:453px;height:394px;background:#FFFFFF;" version="1.1" viewBox="0 0 453 394" width="453px" zoomAndPan="magnify"><defs/><g><!--class ECS--><g id="elem_ECS"><rect codeLine="3" fill="#F1F1F1" height="373.9375" id="ECS" rx="2.5" ry="2.5" style="stroke:#181818;stroke-width:0.5;" width="432" x="7" y="7"/><ellipse cx="204.75" cy="23" fill="#ADD1B2" rx="11" ry="11" style="stroke:#181818;stroke-width:1.0;"/><path d="M207.0938,18.6719 C206.1563,18.2344 205.5625,18.0938 204.6875,18.0938 C202.0625,18.0938 200.0625,20.1719 200.0625,22.8906 L200.0625,24.0156 C200.0625,26.5938 202.1719,28.4844 205.0625,28.4844 C206.2813,28.4844 207.4375,28.1875 208.1875,27.6406 C208.7656,27.2344 209.0938,26.7813 209.0938,26.3906 C209.0938,25.9375 208.7031,25.5469 208.2344,25.5469 C208.0156,25.5469 207.8125,25.625 207.625,25.8125 C207.1719,26.2969 207.1719,26.2969 206.9844,26.3906 C206.5625,26.6563 205.875,26.7813 205.1094,26.7813 C203.0625,26.7813 201.7656,25.6875 201.7656,23.9844 L201.7656,22.8906 C201.7656,21.1094 203.0156,19.7969 204.75,19.7969 C205.3281,19.7969 205.9375,19.9531 206.4063,20.2031 C206.8906,20.4844 207.0625,20.7031 207.1563,21.1094 C207.2188,21.5156 207.25,21.6406 207.3906,21.7656 C207.5313,21.9063 207.7656,22.0156 207.9844,22.0156 C208.25,22.0156 208.5156,21.875 208.6875,21.6563 C208.7969,21.5 208.8281,21.3125 208.8281,20.8906 L208.8281,19.4688 C208.8281,19.0313 208.8125,18.9063 208.7188,18.75 C208.5625,18.4844 208.2813,18.3438 207.9844,18.3438 C207.6875,18.3438 207.4844,18.4375 207.2656,18.75 L207.0938,18.6719 Z " fill="#000000"/><text fill="#000000" font-family="sans-serif" font-size="14" lengthAdjust="spacing" textLength="28" x="225.25" y="27.8467">ECS</text><line style="stroke:#181818;stroke-width:0.5;" x1="8" x2="438" y1="39" y2="39"/><rect fill="none" height="6" style="stroke:#C82930;stroke-width:1.0;" width="6" x="15" y="49.6484"/><text fill="#000000" font-family="sans-serif" font-size="14" lengthAdjust="spacing" textLength="293" x="27" y="55.9951">currentFloor : std::map&lt;Elevator, Floor&gt;</text><rect fill="none" height="6" style="stroke:#C82930;stroke-width:1.0;" width="6" x="15" y="65.9453"/><text fill="#000000" font-family="sans-serif" font-size="14" lengthAdjust="spacing" textLength="395" x="27" y="72.292">destinations : std::map&lt;Elevator, std::vector&lt;Floor&gt;&gt;</text><rect fill="none" height="6" style="stroke:#C82930;stroke-width:1.0;" width="6" x="15" y="82.2422"/><text fill="#000000" font-family="sans-serif" font-size="14" lengthAdjust="spacing" textLength="242" x="27" y="88.5889">elevators : std::vector&lt;Elevator&gt;</text><rect fill="none" height="6" style="stroke:#C82930;stroke-width:1.0;" width="6" x="15" y="98.5391"/><text fill="#000000" font-family="sans-serif" font-size="14" lengthAdjust="spacing" textLength="254" x="27" y="104.8857">servicedFloors : std::vector&lt;Floor&gt;</text><line style="stroke:#181818;stroke-width:0.5;" x1="8" x2="438" y1="112.1875" y2="112.1875"/><ellipse cx="18" cy="125.8359" fill="#84BE84" rx="3" ry="3" style="stroke:#038048;stroke-width:1.0;"/><text fill="#000000" font-family="sans-serif" font-size="14" lengthAdjust="spacing" text-decoration="underline" textLength="148" x="27" y="129.1826">getInstance() : ECS&amp;</text><ellipse cx="18" cy="142.1328" fill="#84BE84" rx="3" ry="3" style="stroke:#038048;stroke-width:1.0;"/><text fill="#000000" font-family="sans-serif" font-size="14" lengthAdjust="spacing" textLength="295" x="27" y="145.4795">checkConnection(int elevatorNum) : void</text><ellipse cx="18" cy="158.4297" fill="#84BE84" rx="3" ry="3" style="stroke:#038048;stroke-width:1.0;"/><text fill="#000000" font-family="sans-serif" font-size="14" lengthAdjust="spacing" textLength="268" x="27" y="161.7764">clearOverload(int elevatorNum) : void</text><ellipse cx="18" cy="174.7266" fill="#84BE84" rx="3" ry="3" style="stroke:#038048;stroke-width:1.0;"/><text fill="#000000" font-family="sans-serif" font-size="14" lengthAdjust="spacing" textLength="260" x="27" y="178.0732">doorBlocked(int elevatorNum) : void</text><ellipse cx="18" cy="191.0234" fill="#84BE84" rx="3" ry="3" style="stroke:#038048;stroke-width:1.0;"/><text fill="#000000" font-family="sans-serif" font-size="14" lengthAdjust="spacing" textLength="278" x="27" y="194.3701">doorUnblocked(int elevatorNum) : void</text><ellipse cx="18" cy="207.3203" fill="#84BE84" rx="3" ry="3" style="stroke:#038048;stroke-width:1.0;"/><text fill="#000000" font-family="sans-serif" font-size="14" lengthAdjust="spacing" textLength="333" x="27" y="210.667">floorRequest(int floorNum, int direction) : void</text><ellipse cx="18" cy="223.6172" fill="#84BE84" rx="3" ry="3" style="stroke:#038048;stroke-width:1.0;"/><text fill="#000000" font-family="sans-serif" font-size="14" lengthAdjust="spacing" textLength="201" x="27" y="226.9639">help(int elevatorNum) : void</text><ellipse cx="18" cy="239.9141" fill="#84BE84" rx="3" ry="3" style="stroke:#038048;stroke-width:1.0;"/><text fill="#000000" font-family="sans-serif" font-size="14" lengthAdjust="spacing" textLength="368" x="27" y="243.2607">makeDecision(int floorNum, int elevatorNum) : void</text><ellipse cx="18" cy="256.2109" fill="#84BE84" rx="3" ry="3" style="stroke:#038048;stroke-width:1.0;"/><text fill="#000000" font-family="sans-serif" font-size="14" lengthAdjust="spacing" textLength="264" x="27" y="259.5576">openChannel(int elevatorNum) : void</text><ellipse cx="18" cy="272.5078" fill="#84BE84" rx="3" ry="3" style="stroke:#038048;stroke-width:1.0;"/><text fill="#000000" font-family="sans-serif" font-size="14" lengthAdjust="spacing" textLength="265" x="27" y="275.8545">readyToMove(int elevatorNum) : void</text><ellipse cx="18" cy="288.8047" fill="#84BE84" rx="3" ry="3" style="stroke:#038048;stroke-width:1.0;"/><text fill="#000000" font-family="sans-serif" font-size="14" lengthAdjust="spacing" textLength="380" x="27" y="292.1514">reportNewFloor(int floorNum, int elevatorNum) : void</text><ellipse cx="18" cy="305.1016" fill="#84BE84" rx="3" ry="3" style="stroke:#038048;stroke-width:1.0;"/><text fill="#000000" font-family="sans-serif" font-size="14" lengthAdjust="spacing" textLength="280" x="27" y="308.4482">reportOverload(int elevatorNum) : void</text><ellipse cx="18" cy="321.3984" fill="#84BE84" rx="3" ry="3" style="stroke:#038048;stroke-width:1.0;"/><text fill="#000000" font-family="sans-serif" font-size="14" lengthAdjust="spacing" textLength="406" x="27" y="324.7451">requestDestination(int floorNum, int elevatorNum) : void</text><ellipse cx="18" cy="337.6953" fill="#84BE84" rx="3" ry="3" style="stroke:#038048;stroke-width:1.0;"/><text fill="#000000" font-family="sans-serif" font-size="14" lengthAdjust="spacing" textLength="247" x="27" y="341.042">selectElevator(int floorNum) : void</text><ellipse cx="18" cy="353.9922" fill="#84BE84" rx="3" ry="3" style="stroke:#038048;stroke-width:1.0;"/><text fill="#000000" font-family="sans-serif" font-size="14" lengthAdjust="spacing" textLength="170" x="27" y="357.3389">triggerFireState() : void</text><ellipse cx="18" cy="370.2891" fill="#84BE84" rx="3" ry="3" style="stroke:#038048;stroke-width:1.0;"/><text fill="#000000" font-family="sans-serif" font-size="14" lengthAdjust="spacing" textLength="199" x="27" y="373.6357">triggerPowerOutage() : void</text></g><!--SRC=[ZPFRJW8n48QlsQVebM30S4-8YN98k12Cw0EKTknMIhjEkqiCuTtjWKKmP67lElFz_yvCE_qsMQo-W3bBslqiOufQIoQZ9TbbhUxEEkeasnC1RgRzGJFet9D10EworWCh4K6xgJ86VTGwFXXiQ36SAAYeCzWZCVNeKGxMIUtTZBQNqHYgV2K6XqaMT7387qK7ejO5nW9MaW6FglzWNK6NvS3M8wErZ_igEb8xKhlFoqregpAI1r81nKK5g0pb3Hptpi_Ai3LSepxqwYht6GfzW-_IJofYCU2P7WadBZ4LVYB9GHKDZXkwXZ4mQUjspnqlYqm1UfHJFoRLO8r0-S-xUJ4LD5A5GJU7RRo4cqj8iXik0DEqndzlw-P_M1zchdv5Px8Jog4K0d3gPx_qgv0U_tdkrMm15wMZuYIxp-BNRvEPpW5bt1o2eD82vB98wvQO9o4GH4nTPW8qzqq29-QuhBy0]--></g></svg>