<?xml version="1.0" encoding="us-ascii" standalone="no"?><svg xmlns="http://www.w3.org/2000/svg" xmlns:xlink="http://www.w3.org/1999/xlink" contentStyleType="text/css" height="85px" preserveAspectRatio="none" style="width:260px;height:85px;background:#FFFFFF;" version="1.1" viewBox="0 0 260 85" width="260px" zoomAndPan="magnify"><defs/><g><!--class ElevatorFloorSensor--><g id="elem_ElevatorFloorSensor"><rect codeLine="3" fill="#F1F1F1" height="64.2969" id="ElevatorFloorSensor" rx="2.5" ry="2.5" style="stroke:#181818;stroke-width:0.5;" width="239" x="7" y="7"/><ellipse cx="49.9" cy="23" fill="#ADD1B2" rx="11" ry="11" style="stroke:#181818;stroke-width:1.0;"/><path d="M52.2438,18.6719 C51.3063,18.2344 50.7125,18.0938 49.8375,18.0938 C47.2125,18.0938 45.2125,20.1719 45.2125,22.8906 L45.2125,24.0156 C45.2125,26.5938 47.3219,28.4844 50.2125,28.4844 C51.4313,28.4844 52.5875,28.1875 53.3375,27.6406 C53.9156,27.2344 54.2438,26.7813 54.2438,26.3906 C54.2438,25.9375 53.8531,25.5469 53.3844,25.5469 C53.1656,25.5469 52.9625,25.625 52.775,25.8125 C52.3219,26.2969 52.3219,26.2969 52.1344,26.3906 C51.7125,26.6563 51.025,26.7813 50.2594,26.7813 C48.2125,26.7813 46.9156,25.6875 46.9156,23.9844 L46.9156,22.8906 C46.9156,21.1094 48.1656,19.7969 49.9,19.7969 C50.4781,19.7969 51.0875,19.9531 51.5563,20.2031 C52.0406,20.4844 52.2125,20.7031 52.3063,21.1094 C52.3688,21.5156 52.4,21.6406 52.5406,21.7656 C52.6813,21.9063 52.9156,22.0156 53.1344,22.0156 C53.4,22.0156 53.6656,21.875 53.8375,21.6563 C53.9469,21.5 53.9781,21.3125 53.9781,20.8906 L53.9781,19.4688 C53.9781,19.0313 53.9625,18.9063 53.8688,18.75 C53.7125,18.4844 53.4313,18.3438 53.1344,18.3438 C52.8375,18.3438 52.6344,18.4375 52.4156,18.75 L52.2438,18.6719 Z " fill="#000000"/><text fill="#000000" font-family="sans-serif" font-size="14" lengthAdjust="spacing" textLength="145" x="70.1" y="27.8467">ElevatorFloorSensor</text><line style="stroke:#181818;stroke-width:0.5;" x1="8" x2="245" y1="39" y2="39"/><line style="stroke:#181818;stroke-width:0.5;" x1="8" x2="245" y1="47" y2="47"/><rect fill="#F24D5C" height="6" style="stroke:#C82930;stroke-width:1.0;" width="6" x="15" y="57.6484"/><text fill="#000000" font-family="sans-serif" font-size="14" lengthAdjust="spacing" textLength="213" x="27" y="63.9951">detectMe(int floorNum) : void</text></g><!--SRC=[RSwn3i8m30JG6N-5jy20ihCnWCH06VY2a9WqACJ8DbqG_mvj9IPklIVTUOUdousYAJeF46jGnLsb8HZBlZBBcPgou0iMwqJsbKTQbcPu7SlkUL_X1WSk2TumnJiyj9waM6YHKAW6AzoqBuzvOpRRd8NoLFqt8-f8ZHBox-47]--></g></svg>