<?xml version="1.0" encoding="us-ascii" standalone="no"?><svg xmlns="http://www.w3.org/2000/svg" xmlns:xlink="http://www.w3.org/1999/xlink" contentStyleType="text/css" height="101px" preserveAspectRatio="none" style="width:205px;height:101px;background:#FFFFFF;" version="1.1" viewBox="0 0 205 101" width="205px" zoomAndPan="magnify"><defs/><g><!--class ElevatorIntercom--><g id="elem_ElevatorIntercom"><rect codeLine="3" fill="#F1F1F1" height="80.5938" id="ElevatorIntercom" rx="2.5" ry="2.5" style="stroke:#181818;stroke-width:0.5;" width="184" x="7" y="7"/><ellipse cx="33.7" cy="23" fill="#ADD1B2" rx="11" ry="11" style="stroke:#181818;stroke-width:1.0;"/><path d="M36.0438,18.6719 C35.1063,18.2344 34.5125,18.0938 33.6375,18.0938 C31.0125,18.0938 29.0125,20.1719 29.0125,22.8906 L29.0125,24.0156 C29.0125,26.5938 31.1219,28.4844 34.0125,28.4844 C35.2313,28.4844 36.3875,28.1875 37.1375,27.6406 C37.7156,27.2344 38.0438,26.7813 38.0438,26.3906 C38.0438,25.9375 37.6531,25.5469 37.1844,25.5469 C36.9656,25.5469 36.7625,25.625 36.575,25.8125 C36.1219,26.2969 36.1219,26.2969 35.9344,26.3906 C35.5125,26.6563 34.825,26.7813 34.0594,26.7813 C32.0125,26.7813 30.7156,25.6875 30.7156,23.9844 L30.7156,22.8906 C30.7156,21.1094 31.9656,19.7969 33.7,19.7969 C34.2781,19.7969 34.8875,19.9531 35.3563,20.2031 C35.8406,20.4844 36.0125,20.7031 36.1063,21.1094 C36.1688,21.5156 36.2,21.6406 36.3406,21.7656 C36.4813,21.9063 36.7156,22.0156 36.9344,22.0156 C37.2,22.0156 37.4656,21.875 37.6375,21.6563 C37.7469,21.5 37.7781,21.3125 37.7781,20.8906 L37.7781,19.4688 C37.7781,19.0313 37.7625,18.9063 37.6688,18.75 C37.5125,18.4844 37.2313,18.3438 36.9344,18.3438 C36.6375,18.3438 36.4344,18.4375 36.2156,18.75 L36.0438,18.6719 Z " fill="#000000"/><text fill="#000000" font-family="sans-serif" font-size="14" lengthAdjust="spacing" textLength="126" x="50.3" y="27.8467">ElevatorIntercom</text><line style="stroke:#181818;stroke-width:0.5;" x1="8" x2="190" y1="39" y2="39"/><line style="stroke:#181818;stroke-width:0.5;" x1="8" x2="190" y1="47" y2="47"/><ellipse cx="18" cy="60.6484" fill="#84BE84" rx="3" ry="3" style="stroke:#038048;stroke-width:1.0;"/><text fill="#000000" font-family="sans-serif" font-size="14" lengthAdjust="spacing" textLength="153" x="27" y="63.9951">blinkIndicator() : void</text><ellipse cx="18" cy="76.9453" fill="#84BE84" rx="3" ry="3" style="stroke:#038048;stroke-width:1.0;"/><text fill="#000000" font-family="sans-serif" font-size="14" lengthAdjust="spacing" textLength="158" x="27" y="80.292">establishVoice() : void</text></g><!--SRC=[RSuX3m8n38PXpNv5tI28UHm2CGCEl-kQMs6iP5tE4Fuxkxi43BNFctnr5Yx3ZR0fM6SCvg0AfqnJQ59zQLHH7l0oc_sGkTnzYOmpRNTmW4auTY5jeQkcgp3IJzvcEMV1bqILMoX8K2c7nb8qyNCTNPlZE5OQ5_hVpD6vRr44-Rxy0G00]--></g></svg>