<?xml version="1.0" encoding="us-ascii" standalone="no"?><svg xmlns="http://www.w3.org/2000/svg" xmlns:xlink="http://www.w3.org/1999/xlink" contentStyleType="text/css" height="85px" preserveAspectRatio="none" style="width:276px;height:85px;background:#FFFFFF;" version="1.1" viewBox="0 0 276 85" width="276px" zoomAndPan="magnify"><defs/><g><!--class ElevatorWeight--><g id="elem_ElevatorWeight"><rect codeLine="3" fill="#F1F1F1" height="64.2969" id="ElevatorWeight" rx="2.5" ry="2.5" style="stroke:#181818;stroke-width:0.5;" width="255" x="7" y="7"/><ellipse cx="74.25" cy="23" fill="#ADD1B2" rx="11" ry="11" style="stroke:#181818;stroke-width:1.0;"/><path d="M76.5938,18.6719 C75.6563,18.2344 75.0625,18.0938 74.1875,18.0938 C71.5625,18.0938 69.5625,20.1719 69.5625,22.8906 L69.5625,24.0156 C69.5625,26.5938 71.6719,28.4844 74.5625,28.4844 C75.7813,28.4844 76.9375,28.1875 77.6875,27.6406 C78.2656,27.2344 78.5938,26.7813 78.5938,26.3906 C78.5938,25.9375 78.2031,25.5469 77.7344,25.5469 C77.5156,25.5469 77.3125,25.625 77.125,25.8125 C76.6719,26.2969 76.6719,26.2969 76.4844,26.3906 C76.0625,26.6563 75.375,26.7813 74.6094,26.7813 C72.5625,26.7813 71.2656,25.6875 71.2656,23.9844 L71.2656,22.8906 C71.2656,21.1094 72.5156,19.7969 74.25,19.7969 C74.8281,19.7969 75.4375,19.9531 75.9063,20.2031 C76.3906,20.4844 76.5625,20.7031 76.6563,21.1094 C76.7188,21.5156 76.75,21.6406 76.8906,21.7656 C77.0313,21.9063 77.2656,22.0156 77.4844,22.0156 C77.75,22.0156 78.0156,21.875 78.1875,21.6563 C78.2969,21.5 78.3281,21.3125 78.3281,20.8906 L78.3281,19.4688 C78.3281,19.0313 78.3125,18.9063 78.2188,18.75 C78.0625,18.4844 77.7813,18.3438 77.4844,18.3438 C77.1875,18.3438 76.9844,18.4375 76.7656,18.75 L76.5938,18.6719 Z " fill="#000000"/><text fill="#000000" font-family="sans-serif" font-size="14" lengthAdjust="spacing" textLength="112" x="94.75" y="27.8467">ElevatorWeight</text><line style="stroke:#181818;stroke-width:0.5;" x1="8" x2="261" y1="39" y2="39"/><line style="stroke:#181818;stroke-width:0.5;" x1="8" x2="261" y1="47" y2="47"/><ellipse cx="18" cy="60.6484" fill="#84BE84" rx="3" ry="3" style="stroke:#038048;stroke-width:1.0;"/><text fill="#000000" font-family="sans-serif" font-size="14" lengthAdjust="spacing" textLength="229" x="27" y="63.9951">updateWeight(int weight) : void</text></g><!--SRC=[ROwX3W8n44Gr-nNh2a7Kun0834ZqNhjfbpJjfTqx1Bb_9xG9Yb6JcPVCM8FtwSbE6neBu1ArXfV4Ascf3vOG5T-mEowp9-KHx2Khlhezu0dN8XuswB86hpbo5QNi62idKYcvHPd7m63E8LGElVhFVA4RDsMFvNVl0m00]--></g></svg>