<?xml version="1.0" encoding="us-ascii" standalone="no"?><svg xmlns="http://www.w3.org/2000/svg" xmlns:xlink="http://www.w3.org/1999/xlink" contentStyleType="text/css" height="769px" preserveAspectRatio="none" style="width:477px;height:769px;background:#FFFFFF;" version="1.1" viewBox="0 0 477 769" width="477px" zoomAndPan="magnify"><defs/><g><!--class Elevator--><g id="elem_Elevator"><rect codeLine="3" fill="#F1F1F1" height="748.7656" id="Elevator" rx="2.5" ry="2.5" style="stroke:#181818;stroke-width:0.5;" width="456" x="7" y="7"/><ellipse cx="200.75" cy="23" fill="#ADD1B2" rx="11" ry="11" style="stroke:#181818;stroke-width:1.0;"/><path d="M203.0938,18.6719 C202.1563,18.2344 201.5625,18.0938 200.6875,18.0938 C198.0625,18.0938 196.0625,20.1719 196.0625,22.8906 L196.0625,24.0156 C196.0625,26.5938 198.1719,28.4844 201.0625,28.4844 C202.2813,28.4844 203.4375,28.1875 204.1875,27.6406 C204.7656,27.2344 205.0938,26.7813 205.0938,26.3906 C205.0938,25.9375 204.7031,25.5469 204.2344,25.5469 C204.0156,25.5469 203.8125,25.625 203.625,25.8125 C203.1719,26.2969 203.1719,26.2969 202.9844,26.3906 C202.5625,26.6563 201.875,26.7813 201.1094,26.7813 C199.0625,26.7813 197.7656,25.6875 197.7656,23.9844 L197.7656,22.8906 C197.7656,21.1094 199.0156,19.7969 200.75,19.7969 C201.3281,19.7969 201.9375,19.9531 202.4063,20.2031 C202.8906,20.4844 203.0625,20.7031 203.1563,21.1094 C203.2188,21.5156 203.25,21.6406 203.3906,21.7656 C203.5313,21.9063 203.7656,22.0156 203.9844,22.0156 C204.25,22.0156 204.5156,21.875 204.6875,21.6563 C204.7969,21.5 204.8281,21.3125 204.8281,20.8906 L204.8281,19.4688 C204.8281,19.0313 204.8125,18.9063 204.7188,18.75 C204.5625,18.4844 204.2813,18.3438 203.9844,18.3438 C203.6875,18.3438 203.4844,18.4375 203.2656,18.75 L203.0938,18.6719 Z " fill="#000000"/><text fill="#000000" font-family="sans-serif" font-size="14" lengthAdjust="spacing" textLength="60" x="221.25" y="27.8467">Elevator</text><line style="stroke:#181818;stroke-width:0.5;" x1="8" x2="462" y1="39" y2="39"/><rect fill="none" height="6" style="stroke:#C82930;stroke-width:1.0;" width="6" x="15" y="49.6484"/><text fill="#000000" font-family="sans-serif" font-size="14" lengthAdjust="spacing" textLength="151" x="27" y="55.9951">audio : ElevatorAudio</text><rect fill="none" height="6" style="stroke:#C82930;stroke-width:1.0;" width="6" x="15" y="65.9453"/><text fill="#000000" font-family="sans-serif" font-size="14" lengthAdjust="spacing" textLength="127" x="27" y="72.292">bell : ElevatorBell</text><rect fill="none" height="6" style="stroke:#C82930;stroke-width:1.0;" width="6" x="15" y="82.2422"/><text fill="#000000" font-family="sans-serif" font-size="14" lengthAdjust="spacing" textLength="175" x="27" y="88.5889">display : ElevatorDisplay</text><rect fill="none" height="6" style="stroke:#C82930;stroke-width:1.0;" width="6" x="15" y="98.5391"/><text fill="#000000" font-family="sans-serif" font-size="14" lengthAdjust="spacing" textLength="141" x="27" y="104.8857">door : ElevatorDoor</text><rect fill="none" height="6" style="stroke:#C82930;stroke-width:1.0;" width="6" x="15" y="114.8359"/><text fill="#000000" font-family="sans-serif" font-size="14" lengthAdjust="spacing" textLength="241" x="27" y="121.1826">floorSensor : ElevatorFloorSensor</text><rect fill="none" height="6" style="stroke:#C82930;stroke-width:1.0;" width="6" x="15" y="131.1328"/><text fill="#000000" font-family="sans-serif" font-size="14" lengthAdjust="spacing" textLength="238" x="27" y="137.4795">helpButton : ElevatorHelpButton</text><rect fill="none" height="6" style="stroke:#C82930;stroke-width:1.0;" width="6" x="15" y="147.4297"/><text fill="#000000" font-family="sans-serif" font-size="14" lengthAdjust="spacing" textLength="205" x="27" y="153.7764">intercom : ElevatorIntercom</text><rect fill="none" height="6" style="stroke:#C82930;stroke-width:1.0;" width="6" x="15" y="163.7266"/><text fill="#000000" font-family="sans-serif" font-size="14" lengthAdjust="spacing" textLength="223" x="27" y="170.0732">weightSensor : ElevatorWeight</text><rect fill="none" height="6" style="stroke:#C82930;stroke-width:1.0;" width="6" x="15" y="180.0234"/><text fill="#000000" font-family="sans-serif" font-size="14" lengthAdjust="spacing" textLength="136" x="27" y="186.3701">doorBlocked : bool</text><rect fill="none" height="6" style="stroke:#C82930;stroke-width:1.0;" width="6" x="15" y="196.3203"/><text fill="#000000" font-family="sans-serif" font-size="14" lengthAdjust="spacing" textLength="110" x="27" y="202.667">fireState : bool</text><rect fill="none" height="6" style="stroke:#C82930;stroke-width:1.0;" width="6" x="15" y="212.6172"/><text fill="#000000" font-family="sans-serif" font-size="14" lengthAdjust="spacing" textLength="147" x="27" y="218.9639">overloadState : bool</text><rect fill="none" height="6" style="stroke:#C82930;stroke-width:1.0;" width="6" x="15" y="228.9141"/><text fill="#000000" font-family="sans-serif" font-size="14" lengthAdjust="spacing" textLength="182" x="27" y="235.2607">powerOutageState : bool</text><rect fill="none" height="6" style="stroke:#C82930;stroke-width:1.0;" width="6" x="15" y="245.2109"/><text fill="#000000" font-family="sans-serif" font-size="14" lengthAdjust="spacing" textLength="128" x="27" y="251.5576">currDirection : int</text><rect fill="none" height="6" style="stroke:#C82930;stroke-width:1.0;" width="6" x="15" y="261.5078"/><text fill="#000000" font-family="sans-serif" font-size="14" lengthAdjust="spacing" textLength="129" x="27" y="267.8545">currFloorNum : int</text><rect fill="none" height="6" style="stroke:#C82930;stroke-width:1.0;" width="6" x="15" y="277.8047"/><text fill="#000000" font-family="sans-serif" font-size="14" lengthAdjust="spacing" textLength="122" x="27" y="284.1514">currentFloor : int</text><rect fill="none" height="6" style="stroke:#C82930;stroke-width:1.0;" width="6" x="15" y="294.1016"/><text fill="#000000" font-family="sans-serif" font-size="14" lengthAdjust="spacing" text-decoration="underline" textLength="248" x="27" y="300.4482">distances : static std::vector&lt;int&gt;</text><rect fill="none" height="6" style="stroke:#C82930;stroke-width:1.0;" width="6" x="15" y="310.3984"/><text fill="#000000" font-family="sans-serif" font-size="14" lengthAdjust="spacing" textLength="430" x="27" y="316.7451">destinationPanel : std::vector&lt;ElevatorDestinationButton&gt;</text><line style="stroke:#181818;stroke-width:0.5;" x1="8" x2="462" y1="324.0469" y2="324.0469"/><ellipse cx="18" cy="337.6953" fill="#84BE84" rx="3" ry="3" style="stroke:#038048;stroke-width:1.0;"/><text fill="#000000" font-family="sans-serif" font-size="14" lengthAdjust="spacing" textLength="179" x="27" y="341.042">checkConnection() : void</text><ellipse cx="18" cy="353.9922" fill="#84BE84" rx="3" ry="3" style="stroke:#038048;stroke-width:1.0;"/><text fill="#000000" font-family="sans-serif" font-size="14" lengthAdjust="spacing" textLength="152" x="27" y="357.3389">clearOverload() : void</text><ellipse cx="18" cy="370.2891" fill="#84BE84" rx="3" ry="3" style="stroke:#038048;stroke-width:1.0;"/><text fill="#000000" font-family="sans-serif" font-size="14" lengthAdjust="spacing" textLength="132" x="27" y="373.6357">decideIfMe() : void</text><ellipse cx="18" cy="386.5859" fill="#84BE84" rx="3" ry="3" style="stroke:#038048;stroke-width:1.0;"/><text fill="#000000" font-family="sans-serif" font-size="14" lengthAdjust="spacing" textLength="144" x="27" y="389.9326">doorBlocked() : void</text><ellipse cx="18" cy="402.8828" fill="#84BE84" rx="3" ry="3" style="stroke:#038048;stroke-width:1.0;"/><text fill="#000000" font-family="sans-serif" font-size="14" lengthAdjust="spacing" textLength="162" x="27" y="406.2295">doorUnblocked() : void</text><ellipse cx="18" cy="419.1797" fill="#84BE84" rx="3" ry="3" style="stroke:#038048;stroke-width:1.0;"/><text fill="#000000" font-family="sans-serif" font-size="14" lengthAdjust="spacing" textLength="147" x="27" y="422.5264">evacProtocol() : void</text><ellipse cx="18" cy="435.4766" fill="#84BE84" rx="3" ry="3" style="stroke:#038048;stroke-width:1.0;"/><text fill="#000000" font-family="sans-serif" font-size="14" lengthAdjust="spacing" textLength="137" x="27" y="438.8232">fireWarning() : void</text><ellipse cx="18" cy="451.7734" fill="#84BE84" rx="3" ry="3" style="stroke:#038048;stroke-width:1.0;"/><text fill="#000000" font-family="sans-serif" font-size="14" lengthAdjust="spacing" textLength="236" x="27" y="455.1201">floorRequest(int floorNum) : void</text><ellipse cx="18" cy="468.0703" fill="#84BE84" rx="3" ry="3" style="stroke:#038048;stroke-width:1.0;"/><text fill="#000000" font-family="sans-serif" font-size="14" lengthAdjust="spacing" textLength="85" x="27" y="471.417">help() : void</text><ellipse cx="18" cy="484.3672" fill="#84BE84" rx="3" ry="3" style="stroke:#038048;stroke-width:1.0;"/><text fill="#000000" font-family="sans-serif" font-size="14" lengthAdjust="spacing" textLength="85" x="27" y="487.7139">help() : void</text><ellipse cx="18" cy="500.6641" fill="#84BE84" rx="3" ry="3" style="stroke:#038048;stroke-width:1.0;"/><text fill="#000000" font-family="sans-serif" font-size="14" lengthAdjust="spacing" textLength="154" x="27" y="504.0107">makeDecision() : void</text><ellipse cx="18" cy="516.9609" fill="#84BE84" rx="3" ry="3" style="stroke:#038048;stroke-width:1.0;"/><text fill="#000000" font-family="sans-serif" font-size="14" lengthAdjust="spacing" textLength="182" x="27" y="520.3076">move(int direction) : void</text><ellipse cx="18" cy="533.2578" fill="#84BE84" rx="3" ry="3" style="stroke:#038048;stroke-width:1.0;"/><text fill="#000000" font-family="sans-serif" font-size="14" lengthAdjust="spacing" textLength="148" x="27" y="536.6045">openChannel() : void</text><ellipse cx="18" cy="549.5547" fill="#84BE84" rx="3" ry="3" style="stroke:#038048;stroke-width:1.0;"/><text fill="#000000" font-family="sans-serif" font-size="14" lengthAdjust="spacing" textLength="148" x="27" y="552.9014">openChannel() : void</text><ellipse cx="18" cy="565.8516" fill="#84BE84" rx="3" ry="3" style="stroke:#038048;stroke-width:1.0;"/><text fill="#000000" font-family="sans-serif" font-size="14" lengthAdjust="spacing" textLength="164" x="27" y="569.1982">overloadThresh() : void</text><ellipse cx="18" cy="582.1484" fill="#84BE84" rx="3" ry="3" style="stroke:#038048;stroke-width:1.0;"/><text fill="#000000" font-family="sans-serif" font-size="14" lengthAdjust="spacing" textLength="149" x="27" y="585.4951">readyToMove() : void</text><ellipse cx="18" cy="598.4453" fill="#84BE84" rx="3" ry="3" style="stroke:#038048;stroke-width:1.0;"/><text fill="#000000" font-family="sans-serif" font-size="14" lengthAdjust="spacing" textLength="282" x="27" y="601.792">requestDestination(int floorNum) : void</text><ellipse cx="18" cy="614.7422" fill="#84BE84" rx="3" ry="3" style="stroke:#038048;stroke-width:1.0;"/><text fill="#000000" font-family="sans-serif" font-size="14" lengthAdjust="spacing" textLength="168" x="27" y="618.0889">resumeFunction() : void</text><ellipse cx="18" cy="631.0391" fill="#84BE84" rx="3" ry="3" style="stroke:#038048;stroke-width:1.0;"/><text fill="#000000" font-family="sans-serif" font-size="14" lengthAdjust="spacing" textLength="176" x="27" y="634.3857">resumeSequence() : void</text><ellipse cx="18" cy="647.3359" fill="#84BE84" rx="3" ry="3" style="stroke:#038048;stroke-width:1.0;"/><text fill="#000000" font-family="sans-serif" font-size="14" lengthAdjust="spacing" textLength="86" x="27" y="650.6826">stop() : void</text><ellipse cx="18" cy="663.6328" fill="#84BE84" rx="3" ry="3" style="stroke:#038048;stroke-width:1.0;"/><text fill="#000000" font-family="sans-serif" font-size="14" lengthAdjust="spacing" textLength="182" x="27" y="666.9795">suspendSequence() : void</text><ellipse cx="18" cy="679.9297" fill="#84BE84" rx="3" ry="3" style="stroke:#038048;stroke-width:1.0;"/><text fill="#000000" font-family="sans-serif" font-size="14" lengthAdjust="spacing" textLength="170" x="27" y="683.2764">triggerFireState() : void</text><ellipse cx="18" cy="696.2266" fill="#84BE84" rx="3" ry="3" style="stroke:#038048;stroke-width:1.0;"/><text fill="#000000" font-family="sans-serif" font-size="14" lengthAdjust="spacing" textLength="199" x="27" y="699.5732">triggerPowerOutage() : void</text><ellipse cx="18" cy="712.5234" fill="#84BE84" rx="3" ry="3" style="stroke:#038048;stroke-width:1.0;"/><text fill="#000000" font-family="sans-serif" font-size="14" lengthAdjust="spacing" textLength="267" x="27" y="715.8701">unblockDoorThenReportBack() : void</text><ellipse cx="18" cy="728.8203" fill="#84BE84" rx="3" ry="3" style="stroke:#038048;stroke-width:1.0;"/><text fill="#000000" font-family="sans-serif" font-size="14" lengthAdjust="spacing" textLength="285" x="27" y="732.167">updateCurrentFloor(int floorNum) : void</text><ellipse cx="18" cy="745.1172" fill="#84BE84" rx="3" ry="3" style="stroke:#038048;stroke-width:1.0;"/><text fill="#000000" font-family="sans-serif" font-size="14" lengthAdjust="spacing" textLength="230" x="27" y="748.4639">updateFloor(int floorNum) : void</text></g><!--SRC=[VPJBRjim44NNzLTePnT5uRrH58YT6lKYiH6xo9ecno9hYgFouI08ykyTKef4-H5j19vxDPgvf3GT5-lzN-3U5UFfQCGrSwxufU74FDhYRVJbEmj2OJ7hu5rS4z-3rXcUqvAeKAxMx3KJxXiIDQIIcK1BeWTDzoqODn2NFIMF15tFW_TeCill3f936G-MOvNfgnQH-WAgbFxY9Sy9jvtDDV8Z29BtY76KWxAmzSn3Z_04LYCJPxZ65x3hu5bv_W0FbWAmbAzAlLERBKq3FePg0C7un3luvgYUuky5vUgPuU18QXZTn6nsej9eVv3xPvm3d5U6nPTjc06TpBshIxwtDG7Iiz-u17vSe35DivElzF09bOYI1cRNxUov880h0Ql30mned-Ov_cFsbm8rnJSMFNBKEOyRyCoiKQOSu9ZG4_mBDCM41YyERPIP9nwOoIVhYXtXdfftPvDMjCEfflZOj4p46in2CafeqEOjtEQranQSp1KBJBpky26-Qu3JIDdct9gE2eOAbi5Sx5IZR6CbEYovuZmE4d31KT_YcjLRLPPWbn_d_ugswKzyhePcU-ENlPDWdg16w-UC7mUcMb3HHNRSRytPE3-nl8_IDHqNAoF1glI951PqYiz9LJU_jSPpLvOMoYHTzqJJ8yLFVm7iVeh_0G00]--></g></svg>